<?xml version="1.0" encoding="utf-8"?>
<svg height="0.75em" style="display:none;" width="0.75em" xmlns="http://www.w3.org/2000/svg"><symbol id="csharp" viewBox="0 0 32 32"><path d="M27.6947 22.9999C27.883 22.6617 28 22.2807 28 21.9385V10.0613C28 9.71913 27.8831 9.33818 27.6947 9L16 16L27.6947 22.9999Z" fill="#7F3A86"/><path d="M17.0395 29.7433L26.9611 23.8047C27.2469 23.6336 27.5067 23.3382 27.695 23L16.0003 16L4.30566 23C4.49398 23.3382 4.75382 23.6337 5.03955 23.8047L14.9611 29.7433C15.5326 30.0855 16.468 30.0855 17.0395 29.7433Z" fill="#662579"/><path d="M27.6947 8.99996C27.5064 8.6617 27.2465 8.36629 26.9608 8.19521L17.0392 2.25662C16.4677 1.91446 15.5323 1.91446 14.9608 2.25662L5.03922 8.19521C4.46761 8.53729 4 9.37709 4 10.0613V21.9386C4 22.2807 4.11694 22.6618 4.30533 23L16 16L27.6947 8.99996Z" fill="#9A5196"/><path d="M16.0385 24C11.6061 24 8 20.4112 8 16C8 11.5888 11.6061 8 16.0385 8C18.8458 8 21.4674 9.47569 22.919 11.8618L19.4765 13.9265C18.7492 12.736 17.4399 12 16.0385 12C13.8222 12 12.0193 13.7944 12.0193 16C12.0193 18.2056 13.8222 20 16.0385 20C17.4362 20 18.7421 19.2681 19.4707 18.0832L22.9205 20.1359C21.4692 22.5234 18.8467 24 16.0385 24Z" fill="white"/><path clip-rule="evenodd" d="M25.0001 13V13.9974H22.9999V13H22.0001V13.9974H21V15H22.0001V16.9948H21V18H22.0001V19H22.9999L23 18H25.0001V19H25.9999V18H27V17H25.9999V15H27V13.9974H25.9999V13H25.0001ZM25.0001 17V15H22.9999V16.9948L25.0001 17Z" fill="white" fill-rule="evenodd"/></symbol><symbol id="nuxt" viewBox="0 -32.5 256 256"><title>Group</title><desc>Created with Sketch.</desc><g fill="none" fill-rule="evenodd" stroke="none" stroke-width="1">
<g transform="translate(0.000173, 0.000000)">
<path d="M77.8911791,183.614864 C77.7012551,183.279 77.5321086,182.931804 77.384692,182.575232 C76.3622173,180.209762 76.0473968,177.598605 76.478347,175.057899 L15.9931374,175.057899 L105.88125,16.874014 L135.390782,68.7489446 L143.947746,53.6076496 L118.223538,8.29039232 C117.503793,6.98418906 113.158668,0 105.667993,0 C102.282527,0 97.4309144,1.46614656 93.485647,8.39702119 L2.42461749,168.500225 C1.65155838,169.8864 -2.10710822,177.163819 1.62490116,183.614864 C3.33096269,186.547156 6.9563432,190.039251 14.9535063,190.039251 L91.2197845,190.039251 C83.2759358,190.039251 79.5972406,186.600471 77.8911791,183.614864 Z" fill="#01C58E">
</path>
<path d="M253.242307,168.500225 L178.415518,36.6803211 C177.64246,35.2941462 173.323992,28.2832999 165.806658,28.2832999 C162.421193,28.2832999 157.56958,29.7227893 153.624314,36.6536639 L143.947746,53.6076496 L152.558025,68.7489446 L165.88663,45.157314 L239.913702,175.057899 L211.763688,175.057899 C212.123898,177.20534 211.921853,179.409465 211.17723,181.45563 C211.020409,181.907379 210.824167,182.344463 210.590771,182.761832 L210.350856,183.241662 C206.565533,189.692707 198.381769,190.039251 196.782337,190.039251 L240.820047,190.039251 C242.446137,190.039251 250.603243,189.692707 254.388568,183.241662 C256.067972,180.309369 257.267546,175.377785 253.242307,168.500225 Z" fill="#108775">
</path>
<path d="M210.350856,183.241662 L210.590771,182.761832 C210.824167,182.344463 211.020409,181.907379 211.17723,181.45563 C211.921853,179.409465 212.123898,177.20534 211.763688,175.057899 C211.348809,172.741872 210.517913,170.520128 209.311226,168.500225 L152.611339,68.7489446 L143.947746,53.6076496 L135.337467,68.7489446 L78.6642383,168.500225 C77.5638612,170.544123 76.8243845,172.762554 76.478347,175.057899 C76.0222311,177.590906 76.3092441,180.201797 77.3047209,182.575232 C77.4521368,182.931805 77.6212834,183.279 77.8112079,183.614864 C79.5172694,186.547156 83.1426494,190.039251 91.1398127,190.039251 L196.702365,190.039251 C198.381769,190.039251 206.565533,189.692707 210.350856,183.241662 L210.350856,183.241662 Z M143.947746,83.89024 L195.769362,175.057899 L92.1527868,175.057899 L143.947746,83.89024 Z" fill="#2F495E">
</path>
</g>
</g></symbol><symbol id="ts" viewBox="0 0 32 32"><title>file_type_typescript_official</title><rect height="28" rx="1.312" style="fill:#3178c6" width="28" x="2" y="2"/><path d="M18.245,23.759v3.068a6.492,6.492,0,0,0,1.764.575,11.56,11.56,0,0,0,2.146.192,9.968,9.968,0,0,0,2.088-.211,5.11,5.11,0,0,0,1.735-.7,3.542,3.542,0,0,0,1.181-1.266,4.469,4.469,0,0,0,.186-3.394,3.409,3.409,0,0,0-.717-1.117,5.236,5.236,0,0,0-1.123-.877,12.027,12.027,0,0,0-1.477-.734q-.6-.249-1.08-.484a5.5,5.5,0,0,1-.813-.479,2.089,2.089,0,0,1-.516-.518,1.091,1.091,0,0,1-.181-.618,1.039,1.039,0,0,1,.162-.571,1.4,1.4,0,0,1,.459-.436,2.439,2.439,0,0,1,.726-.283,4.211,4.211,0,0,1,.956-.1,5.942,5.942,0,0,1,.808.058,6.292,6.292,0,0,1,.856.177,5.994,5.994,0,0,1,.836.3,4.657,4.657,0,0,1,.751.422V13.9a7.509,7.509,0,0,0-1.525-.4,12.426,12.426,0,0,0-1.9-.129,8.767,8.767,0,0,0-2.064.235,5.239,5.239,0,0,0-1.716.733,3.655,3.655,0,0,0-1.171,1.271,3.731,3.731,0,0,0-.431,1.845,3.588,3.588,0,0,0,.789,2.34,6,6,0,0,0,2.395,1.639q.63.26,1.175.509a6.458,6.458,0,0,1,.942.517,2.463,2.463,0,0,1,.626.585,1.2,1.2,0,0,1,.23.719,1.1,1.1,0,0,1-.144.552,1.269,1.269,0,0,1-.435.441,2.381,2.381,0,0,1-.726.292,4.377,4.377,0,0,1-1.018.105,5.773,5.773,0,0,1-1.969-.35A5.874,5.874,0,0,1,18.245,23.759Zm-5.154-7.638h4V13.594H5.938v2.527H9.92V27.375h3.171Z" style="fill:#ffffff;fill-rule:evenodd"/></symbol><symbol id="matlab" viewBox="0 0 32 32"><defs><linearGradient gradientTransform="matrix(1, 0, 0, -1, 0, 32)" gradientUnits="userSpaceOnUse" id="a" x1="16.803" x2="15.013" y1="16.631" y2="22.411"><stop offset="0" stop-color="#512"/><stop offset="0.23" stop-color="#523"/><stop offset="0.36" stop-color="#534"/><stop offset="0.51" stop-color="#645"/><stop offset="0.66" stop-color="#568"/><stop offset="0.84" stop-color="#29d"/></linearGradient><linearGradient gradientUnits="userSpaceOnUse" id="b" x1="29.71" x2="11.71" y1="18.983" y2="14.563"><stop offset="0.081" stop-color="#c33"/><stop offset="0.189" stop-color="#de5239"/><stop offset="0.313" stop-color="#f06e3e"/><stop offset="0.421" stop-color="#fa8042"/><stop offset="0.5" stop-color="#fe8643"/><stop offset="0.58" stop-color="#fa7f42"/><stop offset="0.696" stop-color="#ef6c3e"/><stop offset="0.833" stop-color="#dc4c37"/><stop offset="0.916" stop-color="#cf3633"/></linearGradient></defs><title>file_type_matlab</title><path d="M2,17.55l7.97-3.22a20.7,20.7,0,0,1,2.72-2.95c.66-.35,1.9-.16,4.17-2.98,2.2-2.75,2.9-5.1,3.93-5.1,1.63,0,2.83,3.52,4.65,8.85A115.629,115.629,0,0,0,30,24.12c-1.9-1.77-3.52-3.68-5.37-3.63-1.72.04-3.63,2.08-5.72,4.7-1.66,2.1-3.86,3.54-4.72,3.51,0,0-2.22-6.28-4.08-7.3a2.641,2.641,0,0,0-2.39.2L2,17.54Z" style="fill:#49d"/><path d="M19.8,4.02c-.67.9-1.48,2.55-2.94,4.38-2.27,2.82-3.5,2.63-4.17,2.98a19.674,19.674,0,0,0-2.72,2.95l3.3,2.41c2.8-3.82,4.3-7.96,5.47-10.64A13.579,13.579,0,0,1,19.8,4.02Z" style="fill:url(#a)"/><path d="M20.8,3.3c-2.18,0-3.67,11.48-11.72,17.89,2.26-.37,4.22,5.24,5.12,7.51,4-.68,7.2-8.33,10.43-8.21,1.85.07,3.47,1.86,5.37,3.63C25.66,15,23.63,3.3,20.8,3.3Z" style="fill:url(#b)"/></symbol><symbol id="python" viewBox="0 -0.5 256 256"><defs>
<linearGradient id="linearGradient-1" x1="12.9593594%" x2="79.6388325%" y1="12.0393928%" y2="78.2008538%">
<stop offset="0%" stop-color="#387EB8">
</stop>
<stop offset="100%" stop-color="#366994">
</stop>
</linearGradient>
<linearGradient id="linearGradient-2" x1="19.127525%" x2="90.7415328%" y1="20.5791813%" y2="88.4290372%">
<stop offset="0%" stop-color="#FFE052">
</stop>
<stop offset="100%" stop-color="#FFC331">
</stop>
</linearGradient>
</defs><g>
<path d="M126.915866,0.0722755491 C62.0835831,0.0722801733 66.1321288,28.1874648 66.1321288,28.1874648 L66.2044043,57.3145115 L128.072276,57.3145115 L128.072276,66.0598532 L41.6307171,66.0598532 C41.6307171,66.0598532 0.144551098,61.3549438 0.144551098,126.771315 C0.144546474,192.187673 36.3546019,189.867871 36.3546019,189.867871 L57.9649915,189.867871 L57.9649915,159.51214 C57.9649915,159.51214 56.8001363,123.302089 93.5968379,123.302089 L154.95878,123.302089 C154.95878,123.302089 189.434218,123.859386 189.434218,89.9830604 L189.434218,33.9695088 C189.434218,33.9695041 194.668541,0.0722755491 126.915866,0.0722755491 L126.915866,0.0722755491 L126.915866,0.0722755491 Z M92.8018069,19.6589497 C98.9572068,19.6589452 103.932242,24.6339846 103.932242,30.7893845 C103.932246,36.9447844 98.9572068,41.9198193 92.8018069,41.9198193 C86.646407,41.9198239 81.6713721,36.9447844 81.6713721,30.7893845 C81.6713674,24.6339846 86.646407,19.6589497 92.8018069,19.6589497 L92.8018069,19.6589497 L92.8018069,19.6589497 Z" fill="url(#linearGradient-1)">
</path>
<path d="M128.757101,254.126271 C193.589403,254.126271 189.540839,226.011081 189.540839,226.011081 L189.468564,196.884035 L127.600692,196.884035 L127.600692,188.138693 L214.042251,188.138693 C214.042251,188.138693 255.528417,192.843589 255.528417,127.427208 C255.52844,62.0108566 219.318366,64.3306589 219.318366,64.3306589 L197.707976,64.3306589 L197.707976,94.6863832 C197.707976,94.6863832 198.87285,130.896434 162.07613,130.896434 L100.714182,130.896434 C100.714182,130.896434 66.238745,130.339138 66.238745,164.215486 L66.238745,220.229038 C66.238745,220.229038 61.0044225,254.126271 128.757101,254.126271 L128.757101,254.126271 L128.757101,254.126271 Z M162.87116,234.539597 C156.715759,234.539597 151.740726,229.564564 151.740726,223.409162 C151.740726,217.253759 156.715759,212.278727 162.87116,212.278727 C169.026563,212.278727 174.001595,217.253759 174.001595,223.409162 C174.001618,229.564564 169.026563,234.539597 162.87116,234.539597 L162.87116,234.539597 L162.87116,234.539597 Z" fill="url(#linearGradient-2)">
</path>
</g></symbol><symbol id="js" viewBox="0 0 24 24"><g fill="none" fill-rule="evenodd">
<rect fill="#F1DC50" height="24" width="24"/>
<path d="M12,11 C12,15.749205 12,18.4158717 12,19 C12,19.8761925 11.4771235,21 10,21 C7.61461794,21 7.5,19 7.5,19 M20.7899648,13.51604 C20.1898831,12.5053467 19.3944074,12 18.4035378,12 C16.8563489,12 16,13 16,14 C16,15 16.5,16 18.5084196,16.5 C19.7864643,16.8181718 21,17.5 21,19 C21,20.5 19.6845401,21 18.5,21 C16.9861609,21 15.9861609,20.3333333 15.5,19" stroke="#333" stroke-width="2"/>
</g></symbol><symbol id="docker" viewBox="0 -20.5 256 256"><g fill="none" fill-rule="evenodd">
<path d="M38.617 173.984v-16.362c0-2.15 1.344-3.877 3.57-3.877h.616c2.225 0 3.563 1.729 3.563 3.877v34.447c0 8.4-4.15 15.084-11.382 19.342a21.374 21.374 0 0 1-10.945 2.985h-1.537c-8.402 0-15.077-4.153-19.342-11.38a21.314 21.314 0 0 1-2.984-10.947v-1.535c0-8.403 4.152-15.083 11.378-19.349a21.298 21.298 0 0 1 10.948-2.985h1.537c5.686 0 10.51 2.204 14.578 5.784zM7.924 191.3c0 6.068 2.941 10.63 8.258 13.54 2.15 1.176 4.484 1.808 6.937 1.808 5.956 0 10.374-2.81 13.421-7.857 1.417-2.348 2.077-4.917 2.077-7.648 0-5.26-2.49-9.365-6.729-12.414-2.57-1.848-5.463-2.775-8.618-2.775-6.492 0-11.164 3.28-13.968 9.106-.946 1.97-1.378 4.061-1.378 6.24zm65.324-23.1h1.074c8.978 0 15.806 4.355 20.133 12.192 1.73 3.135 2.656 6.557 2.656 10.142v1.535c0 8.4-4.142 15.093-11.385 19.343-3.353 1.967-7.057 2.984-10.943 2.984h-1.535c-8.402 0-15.079-4.153-19.342-11.38a21.316 21.316 0 0 1-2.987-10.947v-1.535c0-8.404 4.169-15.062 11.377-19.347 3.351-1.991 7.058-2.987 10.952-2.987zm-14.58 23.1c0 5.89 2.89 10.223 7.865 13.27 2.336 1.43 4.909 2.078 7.638 2.078 5.82 0 10.122-2.951 13.116-7.863 1.428-2.342 2.074-4.915 2.074-7.642 0-5.477-2.638-9.661-7.148-12.693-2.471-1.663-5.222-2.496-8.198-2.496-6.492 0-11.164 3.28-13.967 9.106-.948 1.97-1.38 4.061-1.38 6.24zm70.656-14.727c-1.17-.548-3.36-.73-4.624-.778-6.474-.244-11.158 3.402-13.906 9.113-.949 1.97-1.382 4.055-1.382 6.235 0 6.637 3.485 11.284 9.409 14.117 2.164 1.034 4.958 1.23 7.323 1.23 2.08 0 5.02-1.274 6.866-2.151l.32-.152h1.433l.158.032c1.762.367 3.092 1.484 3.092 3.38v.767c0 4.718-8.622 5.798-11.912 6.028-11.61.803-20.293-5.573-23.603-16.647-.575-1.923-.834-3.833-.834-5.837v-1.533c0-8.403 4.17-15.059 11.377-19.34 3.351-1.99 7.057-2.99 10.95-2.99h1.536c4.13 0 7.934 1.173 11.344 3.502l.28.194.177.292c.368.61.685 1.316.685 2.042v.767c0 1.978-1.48 3.042-3.266 3.386l-.148.026h-.458c-1.156 0-3.785-1.197-4.817-1.683zm25.134 5.247c3.01-3.014 6.03-6.022 9.085-8.986.851-.827 4.074-4.327 5.343-4.327h1.388l.158.033c1.768.367 3.092 1.486 3.092 3.386v.766c0 1.296-1.518 2.802-2.355 3.689-1.78 1.887-3.654 3.712-5.476 5.56l-9.362 9.504c4.031 4.04 8.058 8.083 12.056 12.154a313.304 313.304 0 0 1 3.301 3.396c.385.405.953.909 1.276 1.47.347.526.56 1.119.56 1.752v.8l-.045.185c-.435 1.768-1.557 3.194-3.516 3.194h-.617c-1.282 0-2.73-1.45-3.608-2.279-1.81-1.706-3.557-3.5-5.331-5.243l-5.949-5.84v9.334c0 2.15-1.346 3.878-3.569 3.878h-.61c-2.226 0-3.57-1.728-3.57-3.878v-52.596c0-2.15 1.345-3.87 3.57-3.87h.61c2.223 0 3.569 1.72 3.569 3.87v24.048zm96.577-13.313h.77c2.324 0 3.875 1.566 3.875 3.877 0 3.208-3.067 4.029-5.72 4.029-3.48 0-6.803 2.107-9.202 4.47-2.991 2.949-4.3 6.726-4.3 10.878v18.759c0 2.15-1.343 3.876-3.57 3.876h-.612c-2.227 0-3.569-1.725-3.569-3.876v-19.836c0-7.617 3.708-13.835 9.89-18.196 3.691-2.605 7.919-3.98 12.438-3.98zm-55.074 37.176c2.82.985 6.035.844 8.928.34 1.48-.629 5.264-2.28 6.656-2.038l.217.037.2.098c.85.412 1.661.995 2.095 1.86 1.014 2.027.527 4.065-1.465 5.216l-.663.383c-7.35 4.242-15.168 3.654-22.495-.308-3.503-1.894-6.183-4.705-8.16-8.132l-.462-.801c-4.719-8.172-4.082-16.768 1.24-24.539 1.837-2.686 4.238-4.761 7.045-6.384l1.062-.613c6.922-3.996 14.341-3.722 21.45-.215 3.823 1.886 6.92 4.697 9.054 8.394l.384.666c1.55 2.686-.458 5.026-2.531 6.626-2.406 1.856-4.835 4.09-7.141 6.08-5.142 4.439-10.276 8.888-15.414 13.33zm-6.655-4.674c5.75-4.93 11.502-9.865 17.237-14.816 1.96-1.69 4.109-3.444 6.053-5.221-1.56-1.966-4.166-3.383-6.38-4.228-4.47-1.703-8.877-1.131-12.976 1.235-5.365 3.098-7.65 8.031-7.45 14.17.08 2.418.73 4.748 2.013 6.805.452.725.957 1.406 1.503 2.055zM147.488 45.732h22.866v23.375h11.561c5.34 0 10.831-.951 15.887-2.664 2.485-.843 5.273-2.015 7.724-3.49-3.228-4.214-4.876-9.535-5.36-14.78-.66-7.135.78-16.421 5.608-22.005l2.404-2.78 2.864 2.303c7.211 5.793 13.276 13.889 14.345 23.118 8.683-2.554 18.878-1.95 26.531 2.467l3.14 1.812-1.652 3.226C246.933 68.946 233.4 72.86 220.17 72.167c-19.797 49.309-62.898 72.653-115.157 72.653-27 0-51.77-10.093-65.876-34.047l-.231-.39-2.055-4.182c-4.768-10.544-6.352-22.095-5.278-33.637l.323-3.457H51.45V45.732h22.865V22.866h45.733V0h27.44v45.732" fill="#364548"/>
<path d="M221.57 54.38c1.533-11.916-7.384-21.275-12.914-25.719-6.373 7.368-7.363 26.678 2.635 34.808-5.58 4.956-17.337 9.448-29.376 9.448H35.37c-1.17 12.567 1.036 24.14 6.075 34.045l1.667 3.05a56.536 56.536 0 0 0 3.455 5.184c6.025.387 11.58.52 16.662.408h.002c9.987-.22 18.136-1.4 24.312-3.54a1.761 1.761 0 0 1 1.153 3.326c-.822.286-1.678.552-2.562.805h-.003c-4.863 1.389-10.078 2.323-16.806 2.738.4.007-.416.06-.418.06-.229.015-.517.048-.747.06-2.648.149-5.506.18-8.428.18-3.196 0-6.343-.06-9.862-.24l-.09.06c12.21 13.724 31.302 21.955 55.234 21.955 50.648 0 93.608-22.452 112.632-72.857 13.496 1.385 26.467-2.057 32.367-13.575-9.398-5.423-21.484-3.694-28.443-.196" fill="#22A0C8"/>
<path d="M221.57 54.38c1.533-11.916-7.384-21.275-12.914-25.719-6.373 7.368-7.363 26.678 2.635 34.808-5.58 4.956-17.337 9.448-29.376 9.448H44.048c-.598 19.246 6.544 33.855 19.18 42.687h.003c9.987-.22 18.136-1.4 24.312-3.54a1.761 1.761 0 0 1 1.153 3.326c-.822.286-1.678.552-2.562.805h-.003c-4.863 1.389-10.526 2.443-17.254 2.858-.002 0-.163-.155-.165-.155 17.237 8.842 42.23 8.81 70.885-2.197 32.13-12.344 62.029-35.86 82.89-62.757-.314.142-.62.287-.917.436" fill="#37B1D9"/>
<path d="M35.645 88.186c.91 6.732 2.88 13.035 5.8 18.776l1.667 3.05a56.432 56.432 0 0 0 3.455 5.184c6.026.387 11.581.52 16.664.408 9.987-.22 18.136-1.4 24.312-3.54a1.761 1.761 0 0 1 1.153 3.326c-.822.286-1.678.552-2.562.805h-.003c-4.863 1.389-10.496 2.383-17.224 2.799-.231.014-.634.017-.867.03-2.646.148-5.475.239-8.398.239-3.195 0-6.463-.061-9.98-.24 12.21 13.724 31.42 21.985 55.352 21.985 43.36 0 81.084-16.458 102.979-52.822H35.645" fill="#1B81A5"/>
<path d="M45.367 88.186c2.592 11.82 8.821 21.099 17.864 27.418 9.987-.22 18.136-1.4 24.312-3.54a1.761 1.761 0 0 1 1.153 3.326c-.822.286-1.678.552-2.562.805h-.003c-4.863 1.389-10.615 2.383-17.344 2.799 17.236 8.84 42.157 8.713 70.81-2.293 17.334-6.66 34.017-16.574 48.984-28.515H45.367" fill="#1D91B4"/>
<path d="M55.26 49.543h19.818v19.818H55.26V49.543zm1.651 1.652h1.564V67.71h-1.564V51.195zm2.94 0h1.627V67.71h-1.626V51.195zm3.002 0h1.627V67.71h-1.627V51.195zm3.004 0h1.626V67.71h-1.626V51.195zm3.003 0h1.626V67.71H68.86V51.195zm3.002 0h1.565V67.71h-1.565V51.195zM78.126 26.677h19.819v19.817h-19.82V26.677zm1.652 1.652h1.563v16.514h-1.563V28.329zm2.94 0h1.626v16.514h-1.625V28.329zm3.002 0h1.626v16.514H85.72V28.329zm3.003 0h1.626v16.514h-1.626V28.329zm3.003 0h1.627v16.514h-1.627V28.329zm3.002 0h1.566v16.514h-1.566V28.329z" fill="#23A3C2"/>
<path d="M78.126 49.543h19.819v19.818h-19.82V49.543zm1.652 1.652h1.563V67.71h-1.563V51.195zm2.94 0h1.626V67.71h-1.625V51.195zm3.002 0h1.626V67.71H85.72V51.195zm3.003 0h1.626V67.71h-1.626V51.195zm3.003 0h1.627V67.71h-1.627V51.195zm3.002 0h1.566V67.71h-1.566V51.195z" fill="#34BBDE"/>
<path d="M100.993 49.543h19.818v19.818h-19.818V49.543zm1.651 1.652h1.563V67.71h-1.563V51.195zm2.94 0h1.626V67.71h-1.626V51.195zm3.003 0h1.626V67.71h-1.626V51.195zm3.003 0h1.626V67.71h-1.626V51.195zm3.002 0h1.628V67.71h-1.628V51.195zm3.003 0h1.564V67.71h-1.564V51.195z" fill="#23A3C2"/>
<path d="M100.993 26.677h19.818v19.817h-19.818V26.677zm1.651 1.652h1.563v16.514h-1.563V28.329zm2.94 0h1.626v16.514h-1.626V28.329zm3.003 0h1.626v16.514h-1.626V28.329zm3.003 0h1.626v16.514h-1.626V28.329zm3.002 0h1.628v16.514h-1.628V28.329zm3.003 0h1.564v16.514h-1.564V28.329zM123.859 49.543h19.818v19.818h-19.818V49.543zm1.652 1.652h1.563V67.71h-1.563V51.195zm2.94 0h1.626V67.71h-1.626V51.195zm3.002 0h1.626V67.71h-1.626V51.195zm3.003 0h1.627V67.71h-1.627V51.195zm3.003 0h1.627V67.71h-1.627V51.195zm3.003 0h1.564V67.71h-1.564V51.195z" fill="#34BBDE"/>
<path d="M123.859 26.677h19.818v19.817h-19.818V26.677zm1.652 1.652h1.563v16.514h-1.563V28.329zm2.94 0h1.626v16.514h-1.626V28.329zm3.002 0h1.626v16.514h-1.626V28.329zm3.003 0h1.627v16.514h-1.627V28.329zm3.003 0h1.627v16.514h-1.627V28.329zm3.003 0h1.564v16.514h-1.564V28.329z" fill="#23A3C2"/>
<path d="M123.859 3.81h19.818V23.63h-19.818V3.81zm1.652 1.651h1.563v16.516h-1.563V5.46zm2.94 0h1.626v16.516h-1.626V5.46zm3.002 0h1.626v16.516h-1.626V5.46zm3.003 0h1.627v16.516h-1.627V5.46zm3.003 0h1.627v16.516h-1.627V5.46zm3.003 0h1.564v16.516h-1.564V5.46z" fill="#34BBDE"/>
<path d="M146.725 49.543h19.818v19.818h-19.818V49.543zm1.65 1.652h1.565V67.71h-1.564V51.195zm2.94 0h1.627V67.71h-1.626V51.195zm3.004 0h1.627V67.71h-1.627V51.195zm3.002 0h1.627V67.71h-1.627V51.195zm3.004 0h1.626V67.71h-1.626V51.195zm3.002 0h1.564V67.71h-1.564V51.195z" fill="#23A3C2"/>
<path d="M96.704 101.492a5.468 5.468 0 1 1-.002 10.935 5.468 5.468 0 0 1 .002-10.935" fill="#D3ECEC"/>
<path d="M96.704 103.043c.5 0 .977.094 1.417.265a1.598 1.598 0 0 0 .798 2.98c.605 0 1.13-.335 1.402-.831a3.915 3.915 0 1 1-3.617-2.414M0 90.162h254.327c-5.537-1.404-17.52-3.302-15.544-10.56-10.07 11.652-34.353 8.175-40.482 2.43-6.824 9.898-46.554 6.135-49.325-1.576-8.556 10.041-35.067 10.041-43.623 0-2.773 7.711-42.502 11.474-49.327 1.575-6.128 5.746-30.41 9.223-40.48-2.428C17.522 86.86 5.539 88.758 0 90.163" fill="#364548"/>
<path d="M111.237 140.89c-13.54-6.425-20.971-15.16-25.106-24.694-5.03 1.435-11.075 2.353-18.1 2.747-2.646.148-5.43.224-8.35.224-3.368 0-6.917-.1-10.643-.297 12.417 12.41 27.692 21.964 55.976 22.138 2.088 0 4.16-.04 6.223-.118" fill="#BDD9D7"/>
<path d="M91.16 124.994c-1.873-2.543-3.69-5.739-5.026-8.8-5.03 1.437-11.077 2.355-18.103 2.75 4.826 2.619 11.727 5.046 23.13 6.05" fill="#D3ECEC"/>
</g></symbol><symbol id="golang" viewBox="0 -160 512 512"><g>
<path d="M292.533152,13.2950639 L293.657233,14.0455076 C306.869315,22.7704678 316.342129,34.7361275 322.574244,49.1946331 C324.069951,51.4381943 323.072813,52.6846171 320.081398,53.4324709 L315.017741,54.7277932 C303.571167,57.6768058 294.487155,60.1566573 283.191384,63.10567 L276.74841,64.7843862 C274.428264,65.3583626 273.787695,65.1170696 271.320433,62.3073717 L270.972336,61.9081465 C267.453024,57.9195933 264.816991,55.2559574 260.154613,52.878088 L259.255961,52.4353326 C243.551033,44.7075107 228.344673,46.9510719 214.135452,56.1746012 C197.184101,67.1431227 188.459141,83.3466202 188.708425,103.538671 C188.95771,123.481438 202.668362,139.93422 222.361843,142.67635 C239.313195,144.919911 253.522416,138.937081 264.740222,126.223568 C266.983783,123.481438 268.978059,120.490023 271.470905,117.000039 L223.358982,117.000039 C218.124006,117.000039 216.877583,113.759339 218.622575,109.521501 L219.486848,107.487264 C222.690544,100.033179 227.659682,89.3185944 230.887235,83.1925665 L231.591356,81.8743455 C232.452883,80.3801337 234.202861,78.3609287 237.568203,78.3609287 L317.791861,78.3603482 C321.394911,66.9456209 327.24084,56.159659 335.038473,45.9539335 C353.236247,22.0226141 375.17329,9.55838523 404.838154,4.32340907 C430.265181,-0.163713323 454.196501,2.32913245 475.884259,17.0369225 C495.577741,30.4982897 507.792685,48.6960639 511.033385,72.6273834 C515.271222,106.280802 505.549124,133.702105 482.365658,157.134856 C465.912876,173.836922 445.720825,184.306875 422.537359,189.043282 C415.806676,190.289704 409.075992,190.538989 402.594593,191.286843 C379.909697,190.788274 359.219077,184.306875 341.769156,169.3498 C329.496056,158.740849 321.041799,145.701725 316.840932,130.522127 C313.926247,136.409796 310.44016,142.04853 306.370746,147.412757 C288.422257,171.094792 264.989506,185.802582 235.324641,189.791135 C210.894753,193.031835 188.209856,188.295428 168.26709,173.338353 C149.820031,159.378417 139.350079,140.931358 136.607949,117.997177 C133.367249,90.8251575 141.344356,66.3952689 157.797138,44.9567952 C175.496343,21.7733295 198.929093,7.06553943 227.59682,1.8305633 C250.59563,-2.32879605 272.633891,0.235689133 292.533152,13.2950639 L292.533152,13.2950639 Z M411.120284,49.0171223 L410.322415,49.1946331 C387.138949,54.4296092 372.181875,69.1373993 366.697614,92.5701496 C362.210492,112.014347 371.683306,131.707829 389.631795,139.684935 C403.342447,145.667765 417.053099,144.919911 430.265181,138.189228 C449.958663,127.96856 460.6779,112.014347 461.924323,90.575873 C461.675038,87.3351735 461.675038,84.8423277 461.176469,82.3494819 C456.739764,57.9476028 434.511926,44.025432 411.120284,49.0171223 L411.120284,49.0171223 Z M116.415898,94.5644262 C117.413036,94.5644262 117.911605,95.3122799 117.911605,96.3094183 L117.413036,102.292248 C117.413036,103.289387 116.415898,104.03724 115.668044,104.03724 L61.3240061,103.787956 C60.3268678,103.787956 60.0775833,103.040102 60.5761524,102.292248 L64.0661365,96.0601337 C64.5647057,95.3122799 65.561844,94.5644262 66.5589823,94.5644262 L116.415898,94.5644262 Z M121.900159,71.6302451 C122.897297,71.6302451 123.395866,72.3780988 123.146581,73.1259525 L121.152305,79.1087824 C120.90302,80.1059207 119.905882,80.6044899 118.908744,80.6044899 L0.99713831,80.8537744 C0,80.8537744 -0.249284578,80.3552053 0.249284578,79.6073515 L5.48426071,72.8766679 C5.98282987,72.1288142 7.22925276,71.6302451 8.22639107,71.6302451 L121.900159,71.6302451 Z M134.862957,48.6960639 C135.860095,48.6960639 136.109379,49.4439176 135.61081,50.1917714 L131.372973,56.6731704 C130.874403,57.4210241 129.62798,58.1688779 128.880127,58.1688779 L38.6391096,57.9195933 C37.6419713,57.9195933 37.3926867,57.4210241 37.8912558,56.6731704 L43.126232,49.9424868 C43.6248011,49.1946331 44.871224,48.6960639 45.8683623,48.6960639 L134.862957,48.6960639 Z" fill="#00ACD7" fill-rule="nonzero">
</path>
</g></symbol>


    <symbol version="1.1" xmlns="http://www.w3.org/2000/svg" xmlns:xlink="http://www.w3.org/1999/xlink"
            preserveAspectRatio="xMidYMid" viewBox="0 0 256 256" id="python1" width="0.75em" height="0.75em">
        <defs>
            <linearGradient x1="12.9593594%" y1="12.0393928%" x2="79.6388325%" y2="78.2008538%" id="linearGradient-1">
                <stop stop-color="#387EB8" offset="0%"></stop>
                <stop stop-color="#366994" offset="100%"></stop>
            </linearGradient>
            <linearGradient x1="19.127525%" y1="20.5791813%" x2="90.7415328%" y2="88.4290372%" id="linearGradient-2">
                <stop stop-color="#FFE052" offset="0%"></stop>
                <stop stop-color="#FFC331" offset="100%"></stop>
            </linearGradient>
        </defs>
        <g>
            <path d="M126.915866,0.0722755491 C62.0835831,0.0722801733 66.1321288,28.1874648 66.1321288,28.1874648 L66.2044043,57.3145115 L128.072276,57.3145115 L128.072276,66.0598532 L41.6307171,66.0598532 C41.6307171,66.0598532 0.144551098,61.3549438 0.144551098,126.771315 C0.144546474,192.187673 36.3546019,189.867871 36.3546019,189.867871 L57.9649915,189.867871 L57.9649915,159.51214 C57.9649915,159.51214 56.8001363,123.302089 93.5968379,123.302089 L154.95878,123.302089 C154.95878,123.302089 189.434218,123.859386 189.434218,89.9830604 L189.434218,33.9695088 C189.434218,33.9695041 194.668541,0.0722755491 126.915866,0.0722755491 L126.915866,0.0722755491 L126.915866,0.0722755491 Z M92.8018069,19.6589497 C98.9572068,19.6589452 103.932242,24.6339846 103.932242,30.7893845 C103.932246,36.9447844 98.9572068,41.9198193 92.8018069,41.9198193 C86.646407,41.9198239 81.6713721,36.9447844 81.6713721,30.7893845 C81.6713674,24.6339846 86.646407,19.6589497 92.8018069,19.6589497 L92.8018069,19.6589497 L92.8018069,19.6589497 Z"
                  fill="url(#linearGradient-1)"></path>
            <path d="M128.757101,254.126271 C193.589403,254.126271 189.540839,226.011081 189.540839,226.011081 L189.468564,196.884035 L127.600692,196.884035 L127.600692,188.138693 L214.042251,188.138693 C214.042251,188.138693 255.528417,192.843589 255.528417,127.427208 C255.52844,62.0108566 219.318366,64.3306589 219.318366,64.3306589 L197.707976,64.3306589 L197.707976,94.6863832 C197.707976,94.6863832 198.87285,130.896434 162.07613,130.896434 L100.714182,130.896434 C100.714182,130.896434 66.238745,130.339138 66.238745,164.215486 L66.238745,220.229038 C66.238745,220.229038 61.0044225,254.126271 128.757101,254.126271 L128.757101,254.126271 L128.757101,254.126271 Z M162.87116,234.539597 C156.715759,234.539597 151.740726,229.564564 151.740726,223.409162 C151.740726,217.253759 156.715759,212.278727 162.87116,212.278727 C169.026563,212.278727 174.001595,217.253759 174.001595,223.409162 C174.001618,229.564564 169.026563,234.539597 162.87116,234.539597 L162.87116,234.539597 L162.87116,234.539597 Z"
                  fill="url(#linearGradient-2)"></path>
        </g>
    </symbol>
</svg>
